# xmcd
#
# Track frame offsets:
# 150
# 17516
# 33239
# 48400
# 62712
# 74079
# 92304
# 106164
# 122741
# 139935
# 158257
# 172797
#
# Disc length: 2551 seconds
#
#
# Revision: 0
# Processed by: cddbd v1.5.2PL0 Copyright (c) Steve Scherf et al.
# Submitted via: Nero 7, 11, 10, 0 
#
DISCID=8e09f50c
DTITLE=Rob Roy Parnell - Let's Start Something
DYEAR=2008
DGENRE=Blues
TTITLE0=I Know Better
TTITLE1=Sorry As They Come
TTITLE2=Long Distance Love
TTITLE3=If I Were You
TTITLE4=Come On Lil' Baby
TTITLE5=That's All She Wrote
TTITLE6=If Mama Ain't Happy
TTITLE7=Rose Petals
TTITLE8=Loose Lips
TTITLE9=Texas Love Machine
TTITLE10=That's What The Blues Is All About
TTITLE11=Lollipop Mama
EXTD=
EXTT0=I Know Better
EXTT1=Sorry As They Come
EXTT2=Long Distance Love
EXTT3=If I Were You
EXTT4=Come On Lil' Baby
EXTT5=That's All She Wrote
EXTT6=If Mama Ain't Happy
EXTT7=Rose Petals
EXTT8=Loose Lips
EXTT9=Texas Love Machine
EXTT10=That's What The Blues Is All About
EXTT11=Lollipop Mama
PLAYORDER=
